<?xml version="1.0" encoding="UTF-8" standalone="no"?>
<svg
   height="16px"
   viewBox="0 0 16 16"
   width="16px"
   version="1.1"
   id="svg1"
   sodipodi:docname="maximize.svg"
   inkscape:version="1.4.3 (0d15f75042, 2025-12-25)"
   xmlns:inkscape="http://www.inkscape.org/namespaces/inkscape"
   xmlns:sodipodi="http://sodipodi.sourceforge.net/DTD/sodipodi-0.dtd"
   xmlns="http://www.w3.org/2000/svg"
   xmlns:svg="http://www.w3.org/2000/svg">
  <defs
     id="defs1" />
  <sodipodi:namedview
     id="namedview1"
     pagecolor="#ffffff"
     bordercolor="#000000"
     borderopacity="0.25"
     inkscape:showpageshadow="2"
     inkscape:pageopacity="0.0"
     inkscape:pagecheckerboard="true"
     inkscape:deskcolor="#d1d1d1"
     inkscape:zoom="52"
     inkscape:cx="7.9903846"
     inkscape:cy="8"
     inkscape:window-width="1920"
     inkscape:window-height="1043"
     inkscape:window-x="0"
     inkscape:window-y="0"
     inkscape:window-maximized="1"
     inkscape:current-layer="svg1" />
  <path
     d="m 3.019531 0 c -1.644531 0 -2.9999998 1.355469 -2.9999998 3 v 10 c 0 1.644531 1.3554688 3 2.9999998 3 h 10 c 1.644531 0 3 -1.355469 3 -3 v -10 c 0 -1.644531 -1.355469 -3 -3 -3 z m 0 2 h 10 c 0.570313 0 1 0.429688 1 1 v 10 c 0 0.570312 -0.429687 1 -1 1 h -10 c -0.570312 0 -1 -0.429688 -1 -1 v -10 c 0 -0.570312 0.429688 -1 1 -1 z m 0 0"
     fill="#222222"
     id="path1"
     style="fill:#cccccc" />
</svg>
