<?xml version="1.0" encoding="UTF-8" standalone="no"?>
<svg
   height="16px"
   viewBox="0 0 16 16"
   width="16px"
   version="1.1"
   id="svg2"
   sodipodi:docname="restore.svg"
   inkscape:version="1.4.3 (0d15f75042, 2025-12-25)"
   xmlns:inkscape="http://www.inkscape.org/namespaces/inkscape"
   xmlns:sodipodi="http://sodipodi.sourceforge.net/DTD/sodipodi-0.dtd"
   xmlns="http://www.w3.org/2000/svg"
   xmlns:svg="http://www.w3.org/2000/svg">
  <defs
     id="defs2" />
  <sodipodi:namedview
     id="namedview2"
     pagecolor="#ffffff"
     bordercolor="#000000"
     borderopacity="0.25"
     inkscape:showpageshadow="2"
     inkscape:pageopacity="0.0"
     inkscape:pagecheckerboard="true"
     inkscape:deskcolor="#d1d1d1"
     inkscape:zoom="52"
     inkscape:cx="7.9903846"
     inkscape:cy="8"
     inkscape:window-width="1920"
     inkscape:window-height="1043"
     inkscape:window-x="0"
     inkscape:window-y="0"
     inkscape:window-maximized="1"
     inkscape:current-layer="svg2" />
  <g
     fill="#222222"
     id="g2"
     style="fill:#cccccc">
    <path
       d="m 5.996094 3 c -1.644532 0 -3 1.355469 -3 3 v 7 c 0 1.644531 1.355468 3 3 3 h 7 c 1.644531 0 3 -1.355469 3 -3 v -7 c 0 -1.644531 -1.355469 -3 -3 -3 z m 0 2 h 7 c 0.570312 0 1 0.429688 1 1 v 7 c 0 0.570312 -0.429688 1 -1 1 h -7 c -0.570313 0 -1 -0.429688 -1 -1 v -7 c 0 -0.570312 0.429687 -1 1 -1 z m 0 0"
       id="path1"
       style="fill:#cccccc" />
    <path
       d="m 2.996094 0 c -1.644532 0 -3.00000025 1.355469 -3.00000025 3 v 7 c 0 1.292969 0.83984425 2.40625 2.00000025 2.824219 v -9.824219 c 0 -0.570312 0.429687 -1 1 -1 h 9.820312 c -0.414062 -1.160156 -1.527344 -2 -2.820312 -2 z m 0 0"
       id="path2"
       style="fill:#cccccc" />
  </g>
</svg>
